<?xml version="1.0" standalone="no"?>
<!DOCTYPE svg PUBLIC "-//W3C//DTD SVG 20010904//EN"
 "http://www.w3.org/TR/2001/REC-SVG-20010904/DTD/svg10.dtd">
<svg version="1.0" xmlns="http://www.w3.org/2000/svg"
 width="2000.000000pt" height="2000.000000pt" viewBox="0 0 2000.000000 2000.000000"
 preserveAspectRatio="xMidYMid meet">
<metadata>
Created by potrace 1.14, written by Peter Selinger 2001-2017
</metadata>
<g transform="translate(0.000000,2000.000000) scale(0.100000,-0.100000)"
fill="#000000" stroke="none">
<path d="M0 10000 l0 -10000 10000 0 10000 0 0 10000 0 10000 -10000 0 -10000
0 0 -10000z m11580 1575 l1575 -1575 -1578 -1578 -1577 -1577 -1577 1577
-1578 1578 1575 1575 c866 866 1577 1575 1580 1575 3 0 714 -709 1580 -1575z"/>
<path d="M9475 10520 l-520 -520 523 -523 522 -522 522 522 523 523 -520 520
c-286 286 -522 520 -525 520 -3 0 -239 -234 -525 -520z"/>
</g>
</svg>
