<?xml version="1.0" standalone="no"?>
<!DOCTYPE svg PUBLIC "-//W3C//DTD SVG 20010904//EN"
 "http://www.w3.org/TR/2001/REC-SVG-20010904/DTD/svg10.dtd">
<svg version="1.0" xmlns="http://www.w3.org/2000/svg"
 width="139.000000pt" height="139.000000pt" viewBox="0 0 139.000000 139.000000"
 preserveAspectRatio="xMidYMid meet">
<metadata>
Created by potrace 1.11, written by Peter Selinger 2001-2013
</metadata>
<g transform="translate(0.000000,139.000000) scale(0.100000,-0.100000)"
fill="#000000" stroke="none">
<path d="M602 1379 c-290 -38 -525 -253 -588 -537 -22 -99 -15 -260 16 -352
64 -189 177 -321 352 -410 110 -55 204 -74 341 -67 192 8 345 81 475 222 115
126 176 285 176 460 0 121 -19 199 -76 315 -54 110 -177 237 -283 292 -126 66
-283 95 -413 77z m219 -375 c126 -29 162 -79 152 -216 l-6 -84 32 -27 c18 -15
39 -27 47 -27 9 0 12 -4 9 -10 -9 -15 -62 -12 -95 5 -50 26 -61 67 -46 177 8
55 7 59 -21 87 -39 39 -119 55 -243 49 -108 -5 -176 -31 -185 -71 -3 -12 -4
-62 -2 -110 2 -86 1 -89 -26 -112 -30 -27 -93 -43 -108 -28 -7 7 1 15 21 23
48 20 60 54 54 151 -5 73 -3 88 15 116 51 80 234 115 402 77z m-585 -448 c12
-14 24 -17 52 -13 21 4 85 9 143 13 120 8 163 -1 221 -47 30 -24 38 -26 48
-14 6 8 35 25 63 40 58 28 113 32 260 15 98 -11 118 -6 141 38 l15 27 1 -46
c0 -79 -10 -83 -198 -74 -177 8 -188 5 -261 -60 l-38 -34 -34 35 c-62 64 -73
67 -253 59 -189 -8 -196 -6 -203 71 -4 46 -3 48 12 29 8 -11 22 -28 31 -39z"/>
</g>
</svg>
