<?xml version="1.0" standalone="no"?>
<!DOCTYPE svg PUBLIC "-//W3C//DTD SVG 20010904//EN"
 "http://www.w3.org/TR/2001/REC-SVG-20010904/DTD/svg10.dtd">
<svg version="1.0" xmlns="http://www.w3.org/2000/svg"
 width="2000.000000pt" height="2000.000000pt" viewBox="0 0 2000.000000 2000.000000"
 preserveAspectRatio="xMidYMid meet">
<metadata>
Created by potrace 1.14, written by Peter Selinger 2001-2017
</metadata>
<g transform="translate(0.000000,2000.000000) scale(0.100000,-0.100000)"
fill="#000000" stroke="none">
<path d="M11052 14207 l-1052 -1052 -1045 1045 c-575 575 -1050 1047 -1055
1048 -6 2 -1192 -1178 -2636 -2622 l-2626 -2626 2625 -2625 c1444 -1444 2629
-2625 2634 -2625 4 0 479 471 1055 1047 l1048 1048 1052 -1052 1051 -1051
2630 2629 2629 2629 -1314 1313 c-722 723 -1905 1906 -2629 2630 l-1316 1315
-1051 -1051z m-2628 -1583 c264 -265 490 -491 500 -503 l20 -22 -1049 -1049
-1050 -1050 1048 -1048 c576 -576 1047 -1050 1047 -1054 0 -3 -235 -241 -522
-528 l-522 -521 -1575 1575 -1576 1576 1575 1575 1575 1574 23 -22 c14 -12
241 -239 506 -503z m5256 -1049 l1575 -1575 -1576 -1576 -1575 -1575 -505 504
c-277 277 -513 514 -523 526 l-20 22 1049 1049 1050 1050 -1051 1051 -1051
1051 521 523 c287 287 523 523 526 524 3 0 714 -708 1580 -1574z m-3152 -1055
l520 -520 -524 -524 -524 -524 -524 524 -524 524 516 519 c285 285 522 519
529 520 6 0 245 -233 531 -519z"/>
</g>
</svg>
